<?xml version="1.0" encoding="utf-8"?>
<!-- Svg Vector Icons : http://www.onlinewebfonts.com/icon -->
<!DOCTYPE svg PUBLIC "-//W3C//DTD SVG 1.1//EN" "http://www.w3.org/Graphics/SVG/1.1/DTD/svg11.dtd">
<svg version="1.1" xmlns="http://www.w3.org/2000/svg" xmlns:xlink="http://www.w3.org/1999/xlink" x="0px" y="0px" viewBox="0 0 1000 1000" enable-background="new 0 0 1000 1000" xml:space="preserve">
<metadata> Svg Vector Icons : http://www.onlinewebfonts.com/icon </metadata>
<g>
<path fill="#3969fe" d="M717.5,355H645l-18.1-36.3c-12.8-21.1-16.2-36.3-36.3-36.3H409.4c-20,0-23.4,15.2-36.3,36.3L355,355h-72.5c-20,0-36.3,16.2-36.3,36.3v290c0,20,16.2,36.3,36.3,36.3h435c20,0,36.3-16.2,36.3-36.3v-290C753.8,371.2,737.5,355,717.5,355z M500,672.2c-80.1,0-145-64.9-145-145c0-80.1,64.9-145,145-145c80.1,0,145,64.9,145,145C645,607.3,580.1,672.2,500,672.2z"/>
<path fill="#3969fe" d="M391.2,527.2c0,60.1,48.7,108.8,108.8,108.8s108.8-48.7,108.8-108.8c0-60.1-48.7-108.8-108.8-108.8S391.2,467.1,391.2,527.2z"/>
</g>
</svg>
