<svg width="10" height="11" viewBox="0 0 10 11" fill="none" xmlns="http://www.w3.org/2000/svg">
<path d="M6.68945 5.375L9.85352 2.24023C10.0293 2.06445 10.0293 1.74219 9.85352 1.56641L9.12109 0.833984C8.94531 0.658203 8.62305 0.658203 8.44727 0.833984L5.3125 3.99805L2.14844 0.833984C1.97266 0.658203 1.65039 0.658203 1.47461 0.833984L0.742188 1.56641C0.566406 1.74219 0.566406 2.06445 0.742188 2.24023L3.90625 5.375L0.742188 8.53906C0.566406 8.71484 0.566406 9.03711 0.742188 9.21289L1.47461 9.94531C1.65039 10.1211 1.97266 10.1211 2.14844 9.94531L5.3125 6.78125L8.44727 9.94531C8.62305 10.1211 8.94531 10.1211 9.12109 9.94531L9.85352 9.21289C10.0293 9.03711 10.0293 8.71484 9.85352 8.53906L6.68945 5.375Z" fill="#FD6E6E"/>
</svg>
