<svg width="10" height="12" viewBox="0 0 10 12" fill="none" xmlns="http://www.w3.org/2000/svg">
<path d="M7.15984 3.11999C8.71246 4.28446 9.48878 4.86669 9.63221 5.63119C9.67794 5.87493 9.67794 6.12505 9.63221 6.36878C9.48878 7.13329 8.71246 7.71552 7.15984 8.87999L6.09317 9.67999C3.88061 11.3394 2.77432 12.1691 1.85346 11.9416C1.56566 11.8705 1.29727 11.7363 1.0677 11.5487C0.33317 10.9485 0.33317 9.56569 0.333171 6.79999L0.333171 5.19999C0.333171 2.43428 0.33317 1.05143 1.06771 0.451249C1.29727 0.263674 1.56566 0.129478 1.85346 0.058372C2.77433 -0.169145 3.88061 0.660566 6.09317 2.31999L7.15984 3.11999Z" fill="white"/>
</svg>
